# xmcd
#
# Track frame offsets:
#	150
#	18780
#	35097
#	48948
#	73023
#	92189
#	109715
#	121638
#	135635
#	147323
#	159626
#	170230
#	186895
#	204186
#	220288
#	238659
#	253244
#	268256
#	286147
#	303156
#	318456
#	332458
#
# Disc length: 4691 seconds
#
# Revision: 1
# Processed by: cddbd v1.5.2PL0 Copyright (c) Steve Scherf et al.
# Submitted via: audiograbber 1.83.01
#
DISCID=45125116
DTITLE=Hilde Heltberg - Elsk de umulige
DYEAR=2012
DGENRE=Folk-Rock
TTITLE0=Den siste låta /med Marius Müller 
TTITLE1=Skogslåt
TTITLE2=Vinden veit
TTITLE3=Vinterland /med Ulf Lundell 
TTITLE4=Sang til månen /med Cato Sanden 
TTITLE5=Wayfaring Stranger /med Rita Eriksen 
TTITLE6=Under Water
TTITLE7=Come To Me /med Paal Flaata
TTITLE8=Elsk det umulige
TTITLE9=La meg være stille
TTITLE10=La dette bli min sang
TTITLE11=Blå salme
TTITLE12=Hvorfor er de stille nå? /med Kari Iveland 
TTITLE13=Hold om meg
TTITLE14=Bli med, vennen
TTITLE15=Noe med deg /med Henning Kvitnes 
TTITLE16=Elske fritt
TTITLE17=Omtrent som før /med Jonas Fjeld 
TTITLE18=Mitt hjerte er ditt /med FTH
TTITLE19=What To Do
TTITLE20=Forglem meg ei
TTITLE21=Menuett i mai /med Åge Aleksandersen og Cato Sanden
EXTD=
EXTT0=
EXTT1=
EXTT2=
EXTT3=
EXTT4=
EXTT5=
EXTT6=
EXTT7=
EXTT8=
EXTT9=
EXTT10=
EXTT11=
EXTT12=
EXTT13=
EXTT14=
EXTT15=
EXTT16=
EXTT17=
EXTT18=
EXTT19=
EXTT20=
EXTT21=
PLAYORDER=
